<?xml version="1.0" encoding="utf-8"?>
<!-- Generator: Adobe Illustrator 16.0.0, SVG Export Plug-In . SVG Version: 6.00 Build 0)  -->
<!DOCTYPE svg PUBLIC "-//W3C//DTD SVG 1.1//EN" "http://www.w3.org/Graphics/SVG/1.1/DTD/svg11.dtd">
<svg version="1.1" id="Layer_1" xmlns="http://www.w3.org/2000/svg" xmlns:xlink="http://www.w3.org/1999/xlink" x="0px" y="0px"
	 width="600px" height="600px" viewBox="0 0 600 600" enable-background="new 0 0 600 600" xml:space="preserve">
<g opacity="0.7">
	<g opacity="0.6">
		<linearGradient id="SVGID_1_" gradientUnits="userSpaceOnUse" x1="441.7656" y1="481.0508" x2="159.1716" y2="120.1476">
			<stop  offset="0" style="stop-color:#70D4FD"/>
			<stop  offset="1" style="stop-color:#70D4FD;stop-opacity:0"/>
		</linearGradient>
		<circle fill="url(#SVGID_1_)" cx="300" cy="300" r="232.8"/>
	</g>
	<g opacity="0.5">
		<path fill="none" stroke="#70D4FD" stroke-width="4" stroke-linecap="round" stroke-linejoin="round" stroke-miterlimit="10" d="
			M386.099,51.795C359.127,42.44,330.156,37.356,300,37.356c-24.289,0-47.806,3.296-70.132,9.468"/>
		<path fill="none" stroke="#70D4FD" stroke-width="4" stroke-linecap="round" stroke-linejoin="round" stroke-miterlimit="10" d="
			M528.907,171.13c-15.927-28.23-36.927-53.218-61.759-73.73"/>
		<path fill="none" stroke="#70D4FD" stroke-width="4" stroke-linecap="round" stroke-linejoin="round" stroke-miterlimit="10" d="
			M448.061,516.964c31.233-21.355,57.62-49.281,77.171-81.786c23.752-39.488,37.413-85.739,37.413-135.178"/>
		<path fill="none" stroke="#70D4FD" stroke-width="4" stroke-linecap="round" stroke-linejoin="round" stroke-miterlimit="10" d="
			M115.097,486.53c47.463,47.052,112.79,76.114,184.903,76.114"/>
		<path fill="none" stroke="#70D4FD" stroke-width="4" stroke-linecap="round" stroke-linejoin="round" stroke-miterlimit="10" d="
			M87.427,145.709C55.932,189.029,37.356,242.345,37.356,300c0,32.244,5.81,63.132,16.442,91.671"/>
	</g>
	<g opacity="0.3">
		<path fill="none" stroke="#70D4FD" stroke-width="4" stroke-linecap="round" stroke-linejoin="round" stroke-miterlimit="10" d="
			M408.683,31.699c-7.938-3.221-16.053-6.099-24.325-8.615"/>
		<path fill="none" stroke="#70D4FD" stroke-width="4" stroke-linecap="round" stroke-linejoin="round" stroke-miterlimit="10" d="
			M576.366,213.86c-13.055-41.929-35.388-79.769-64.599-111.113c-17.597-18.884-37.689-35.409-59.751-49.054"/>
		<path fill="none" stroke="#70D4FD" stroke-width="4" stroke-linecap="round" stroke-linejoin="round" stroke-miterlimit="10" d="
			M480.898,525.912C547.048,472.874,589.403,391.384,589.403,300"/>
		<path fill="none" stroke="#70D4FD" stroke-width="4" stroke-linecap="round" stroke-linejoin="round" stroke-miterlimit="10" d="
			M192.5,568.778c33.235,13.305,69.514,20.625,107.5,20.625c41.797,0,81.526-8.861,117.407-24.807"/>
		<path fill="none" stroke="#70D4FD" stroke-width="4" stroke-linecap="round" stroke-linejoin="round" stroke-miterlimit="10" d="
			M30.296,405.166c13.788,35.332,34.318,67.286,60.008,94.288"/>
		<path fill="none" stroke="#70D4FD" stroke-width="4" stroke-linecap="round" stroke-linejoin="round" stroke-miterlimit="10" d="
			M107.147,84.213C47.893,137.204,10.597,214.247,10.597,300"/>
		<path fill="none" stroke="#70D4FD" stroke-width="4" stroke-linecap="round" stroke-linejoin="round" stroke-miterlimit="10" d="
			M327.125,11.85c-8.932-0.83-17.979-1.253-27.125-1.253c-45.585,0-88.709,10.541-127.067,29.316"/>
	</g>
	<g opacity="0.6">
		<circle fill="#70D4FD" cx="256.572" cy="470.339" r="22.922"/>
	</g>
	<g opacity="0.6">
		<circle fill="#70D4FD" cx="482.87" cy="227.398" r="12.464"/>
	</g>
	<g opacity="0.6">
		<circle fill="#70D4FD" cx="202.202" cy="462.41" r="9.714"/>
	</g>
</g>
</svg>
